<?xml version="1.0" standalone="no"?>
<!DOCTYPE svg PUBLIC "-//W3C//DTD SVG 20010904//EN"
 "http://www.w3.org/TR/2001/REC-SVG-20010904/DTD/svg10.dtd">
<svg version="1.0" xmlns="http://www.w3.org/2000/svg"
 width="300.000000pt" height="300.000000pt" viewBox="0 0 300.000000 300.000000"
 preserveAspectRatio="xMidYMid meet">
<metadata>
Created by potrace 1.11, written by Peter Selinger 2001-2013
</metadata>
<g transform="translate(0.000000,300.000000) scale(0.100000,-0.100000)"
fill="#000000" stroke="none">
<path d="M1368 2855 c-2 -2 -27 -6 -56 -9 -216 -24 -477 -135 -662 -281 -62
-50 -212 -207 -261 -275 -46 -65 -126 -210 -167 -305 -15 -35 -63 -208 -68
-244 -26 -199 -23 -358 10 -506 27 -126 56 -207 122 -339 187 -376 521 -630
949 -722 92 -19 363 -27 441 -13 27 5 65 12 84 15 53 8 186 49 269 84 64 26
237 122 251 139 3 3 23 19 45 36 89 65 228 213 293 311 83 127 168 311 187
407 3 10 7 27 10 37 29 91 43 394 23 498 -4 26 -13 72 -19 102 -52 275 -242
585 -463 760 -32 25 -70 55 -84 67 -15 13 -31 23 -36 23 -5 0 -17 6 -25 14
-25 22 -189 101 -267 129 -39 14 -107 33 -150 42 -44 9 -88 19 -99 22 -23 5
-322 13 -327 8z"/>
</g>
</svg>
